<svg xmlns="http://www.w3.org/2000/svg" enable-background="new 0 0 141.7 141.7" viewBox="0 0 141.7 141.7"><path fill="#4285f4" d="M24.3,111.3h17.2V69.6L16.9,51.3V104C16.9,108,20.2,111.3,24.3,111.3z"/><path fill="#34a853" d="M100.3,111.3h17.2c4.1,0,7.4-3.3,7.4-7.4V51.3l-24.5,18.4V111.3z"/><path fill="#fbbc04" d="M100.3,37.8v31.9l24.5-18.4v-9.8c0-9.1-10.4-14.3-17.7-8.8L100.3,37.8z"/><path fill="#ea4335" fill-rule="evenodd" d="M41.4,69.6V37.8l29.4,22.1l29.4-22.1v31.9L70.9,91.7L41.4,69.6z" clip-rule="evenodd"/><path fill="#c5221f" d="M16.9,41.4v9.8l24.5,18.4V37.8l-6.9-5.2C27.3,27.2,16.9,32.4,16.9,41.4z"/></svg>